<?xml version="1.0" encoding="UTF-8" standalone="no"?>
<!-- Generator: Adobe Illustrator 18.0.0, SVG Export Plug-In . SVG Version: 6.00 Build 0)  -->

<svg
   xmlns:dc="http://purl.org/dc/elements/1.1/"
   xmlns:cc="http://creativecommons.org/ns#"
   xmlns:rdf="http://www.w3.org/1999/02/22-rdf-syntax-ns#"
   xmlns:svg="http://www.w3.org/2000/svg"
   xmlns="http://www.w3.org/2000/svg"
   xmlns:sodipodi="http://sodipodi.sourceforge.net/DTD/sodipodi-0.dtd"
   xmlns:inkscape="http://www.inkscape.org/namespaces/inkscape"
   version="1.1"
   id="Capa_1"
   x="0px"
   y="0px"
   viewBox="0 0 295.996 295.996"
   style="enable-background:new 0 0 295.996 295.996;"
   xml:space="preserve"
   width="512px"
   height="512px"
   sodipodi:docname="ottima.svg"
   inkscape:version="0.92.2 (5c3e80d, 2017-08-06)"><metadata
     id="metadata47"><rdf:RDF><cc:Work
         rdf:about=""><dc:format>image/svg+xml</dc:format><dc:type
           rdf:resource="http://purl.org/dc/dcmitype/StillImage" /><dc:title></dc:title></cc:Work></rdf:RDF></metadata><defs
     id="defs45" /><sodipodi:namedview
     pagecolor="#ffffff"
     bordercolor="#666666"
     borderopacity="1"
     objecttolerance="10"
     gridtolerance="10"
     guidetolerance="10"
     inkscape:pageopacity="0"
     inkscape:pageshadow="2"
     inkscape:window-width="1920"
     inkscape:window-height="1018"
     id="namedview43"
     showgrid="false"
     inkscape:pagecheckerboard="true"
     inkscape:snap-bbox="true"
     inkscape:zoom="1.3037281"
     inkscape:cx="250.3993"
     inkscape:cy="229.06382"
     inkscape:window-x="1358"
     inkscape:window-y="-8"
     inkscape:window-maximized="1"
     inkscape:current-layer="layer3" /><g
     id="g10" /><g
     inkscape:groupmode="layer"
     id="layer3"
     inkscape:label="bocca"
     style="display:inline;opacity:1"><path
       style="display:inline;fill:#ffffff;fill-opacity:1;stroke-width:1"
       mask="none"
       clip-path="none"
       d="m 100.90625,256.0332 a 155.11864,155.11864 0 0 0 -0.0254,0.50977 A 155.11864,155.11864 0 0 0 256,411.66016 155.11864,155.11864 0 0 0 411.11914,256.54297 a 155.11864,155.11864 0 0 0 -0.0176,-0.50977 z m 29.97656,28.16992 h 249.72852 a 128.27119,128.27119 0 0 1 -124.88281,99.5254 128.27119,128.27119 0 0 1 -124.84571,-99.5254 z"
       transform="scale(0.57811719)"
       id="path3770"
       inkscape:connector-curvature="0" /><path
       id="rect3951"
       transform="scale(0.57811719)"
       style="fill:none;fill-opacity:1;stroke-width:1"
       d="M 89.492188,103.59375 V 255.45703 H 419.25391 V 103.59375 Z M 257.18359,223.20117 c 1.10414,-0.0516 2.40103,0.65436 3.33985,2.43555 0.44806,0.85007 2.8353,4.04924 2.60937,5.1543 -0.14138,0.69154 -0.41609,1.35409 -0.7539,1.98242 0.23969,0.31434 0.16329,2.42136 0.15429,2.73437 -0.0565,1.04024 -0.0294,2.082 -0.0234,3.12305 0.001,1.29187 -0.004,2.58315 -0.002,3.875 0.001,1.0657 0.002,2.13156 0.002,3.19726 0.10343,2.71926 -0.48503,4.86705 -4.06446,4.87305 -0.57846,6.6e-4 -1.15591,5e-4 -1.73437,0 -5.36911,-0.005 -5.3658,-5.42883 0.004,-5.42383 0.12367,1.1e-4 0.24743,-5e-5 0.3711,0 1.4e-4,-0.88092 7.7e-4,-1.76166 0,-2.64257 -0.001,-1.28234 0.004,-2.56531 0.002,-3.84766 -0.007,-1.11035 -0.0359,-2.22058 0.0234,-3.33008 0.064,-1.58149 -0.4719,-3.08718 0.18555,-4.61328 -0.50606,-0.86456 -1.09272,-1.76599 -1.48243,-2.39063 -1.77629,-2.84708 -0.47108,-5.04085 1.36914,-5.12695 z m 1.67383,5.94141 c 0.0855,-0.0806 -0.23905,0.10315 -0.28125,0.21289 -0.008,0.02 -0.0135,0.0405 -0.0215,0.0606 0.10014,-0.092 0.20383,-0.18014 0.30273,-0.27344 z m -1.00781,2.58984 c -0.01,0.0407 -0.0232,0.0804 -0.0332,0.1211 -0.0138,0.0544 0.16627,0.14064 0.14257,0.0898 -0.0303,-0.065 -0.0758,-0.14324 -0.10937,-0.21094 z"
       inkscape:connector-curvature="0" /></g><g
     inkscape:groupmode="layer"
     id="layer1"
     inkscape:label="cerchio"
     style="display:inline"><path
       id="path2"
       transform="scale(0.57811719)"
       style="fill:#ffffff;stroke-width:1.72975314"
       d="M 256,0 C 114.84177,0 0,114.84177 0,256 0,397.15823 114.84177,512 256,512 397.15823,512 512,397.15823 512,256 512,114.84177 397.15996,0 256,0 Z m 0,27.675781 c 59.71627,0 114.14037,23.055106 154.86914,60.71875 21.11683,19.525449 38.55533,42.972419 51.12891,69.181639 14.30506,29.81922 22.32617,63.2026 22.32617,98.42383 0,125.89835 -102.42587,228.32422 -228.32422,228.32422 -62.71393,0 -119.59952,-25.42093 -160.904297,-66.49219 C 78.600778,401.43051 64.597946,382.52824 53.695312,361.75391 37.089683,330.11845 27.675781,294.13933 27.675781,256 27.675781,130.10165 130.10165,27.675781 256,27.675781 Z"
       inkscape:connector-curvature="0" /></g><g
     inkscape:groupmode="layer"
     id="layer2"
     inkscape:label="occhi"
     style="display:inline"><circle
       style="fill:#ffffff"
       cx="98.465576"
       cy="107.71938"
       r="16"
       id="circle4" /><circle
       style="fill:#ffffff"
       cx="197.77913"
       cy="107.90306"
       r="16"
       id="circle6" /><path
       id="path3781"
       transform="scale(0.57811719)"
       style="fill:#ffffff;fill-opacity:1;stroke-width:1"
       d="m 258.85742,229.14258 c 0.0445,-0.042 -0.0194,-0.0108 -0.0996,0.043 a 0.27118645,4.3389831 0 0 0 -0.002,0.0488 c 0.034,-0.0305 0.0684,-0.0605 0.10156,-0.0918 z"
       inkscape:connector-curvature="0" /></g><g
     id="g12" /><g
     id="g14" /><g
     id="g16" /><g
     id="g18" /><g
     id="g20" /><g
     id="g22" /><g
     id="g24" /><g
     id="g26" /><g
     id="g28" /><g
     id="g30" /><g
     id="g32" /><g
     id="g34" /><g
     id="g36" /><g
     id="g38" /><g
     id="g40" /></svg>